<?xml version="1.0" encoding="iso-8859-1"?>
<!-- Generator: Adobe Illustrator 19.0.0, SVG Export Plug-In . SVG Version: 6.00 Build 0)  -->
<svg version="1.1" id="Capa_1" xmlns="http://www.w3.org/2000/svg" xmlns:xlink="http://www.w3.org/1999/xlink" x="0px" y="0px"
	 viewBox="0 0 512 512" style="enable-background:new 0 0 512 512;" xml:space="preserve">
<g>
	<g>
		<g>
			<path d="M358.4,0H153.6c-32.974,0.038-59.695,26.759-59.733,59.733v392.533c0.038,32.974,26.759,59.695,59.733,59.733h204.8
				c32.974-0.038,59.695-26.759,59.733-59.733V59.733C418.095,26.759,391.374,0.038,358.4,0z M401.067,452.267
				c-0.028,23.553-19.114,42.639-42.667,42.667H153.6c-23.553-0.028-42.639-19.114-42.667-42.667v-8.533h290.133V452.267z
				 M401.067,426.667H110.933V85.333h290.133V426.667z M401.067,68.267H110.933v-8.533c0.028-23.553,19.114-42.639,42.667-42.667
				h204.8c23.553,0.028,42.639,19.114,42.667,42.667V68.267z"/>
			<path d="M264.533,34.133h-51.2c-4.713,0-8.533,3.82-8.533,8.533s3.82,8.533,8.533,8.533h51.2c4.713,0,8.533-3.82,8.533-8.533
				S269.246,34.133,264.533,34.133z"/>
			<path d="M298.667,34.133c-4.713,0-8.533,3.82-8.533,8.533c-0.022,2.27,0.87,4.453,2.475,6.058
				c1.605,1.605,3.788,2.497,6.058,2.475c2.259-0.035,4.421-0.918,6.059-2.475c0.341-0.429,0.683-0.854,1.025-1.279
				c0.321-0.477,0.579-0.994,0.767-1.538c0.247-0.483,0.419-1.002,0.508-1.537c0.103-0.563,0.162-1.133,0.175-1.705
				C307.2,37.954,303.38,34.133,298.667,34.133z"/>
			<path d="M221.867,477.867h68.267c4.713,0,8.533-3.82,8.533-8.533s-3.821-8.533-8.533-8.533h-68.267
				c-4.713,0-8.533,3.82-8.533,8.533S217.154,477.867,221.867,477.867z"/>
			<path d="M139.575,277.046l27.752,9.473c1.251,3.611,2.723,7.142,4.408,10.573L158.8,323.433
				c-3.227,6.569-1.921,14.463,3.25,19.642l6.883,6.875c5.17,5.174,13.061,6.483,19.625,3.254l26.352-12.939
				c3.43,1.685,6.961,3.157,10.571,4.408l9.477,27.74c2.354,6.927,8.858,11.587,16.175,11.588h9.733
				c7.314-0.001,13.817-4.656,16.175-11.579l9.478-27.748c3.611-1.251,7.141-2.723,10.571-4.407l26.352,12.939
				c6.563,3.228,14.453,1.921,19.625-3.25l6.892-6.887c5.165-5.178,6.468-13.066,3.242-19.629l-12.936-26.345
				c1.685-3.431,3.158-6.962,4.409-10.573l27.752-9.473c6.922-2.364,11.574-8.869,11.575-16.183v-9.725
				c-0.001-7.315-4.653-13.819-11.575-16.183l-27.752-9.473c-1.251-3.611-2.723-7.142-4.408-10.573l12.935-26.342
				c3.227-6.569,1.921-14.463-3.25-19.642l-6.883-6.875c-5.17-5.175-13.061-6.483-19.625-3.254l-26.352,12.939
				c-3.43-1.685-6.961-3.157-10.571-4.408l-9.477-27.74c-2.354-6.927-8.858-11.587-16.175-11.588h-9.733
				c-7.314,0.001-13.817,4.656-16.175,11.579l-9.478,27.748c-3.611,1.251-7.141,2.723-10.571,4.407l-26.352-12.939
				c-6.563-3.23-14.454-1.923-19.625,3.25l-6.892,6.888c-5.165,5.178-6.468,13.066-3.242,19.629l12.936,26.345
				c-1.685,3.431-3.158,6.962-4.409,10.573l-27.752,9.473c-6.922,2.364-11.575,8.869-11.575,16.183v9.725
				C128.001,268.177,132.653,274.682,139.575,277.046z M349.174,245.061l17.759,6.076l-0.025,9.758l-17.736,6.054
				C350.098,259.683,350.098,252.328,349.174,245.061z M260.867,366.933l-9.758-0.029l-6.057-17.732
				c7.267,0.925,14.622,0.926,21.889,0.001L260.867,366.933z M330.958,337.888l-16.88-8.289c5.755-4.55,10.961-9.755,15.513-15.509
				l8.293,16.91L330.958,337.888z M331,174.121l6.883,6.917l-8.288,16.88c-4.55-5.754-9.754-10.958-15.507-15.509L331,174.121z
				 M251.133,145.067l9.758,0.029l6.056,17.732c-7.267-0.925-14.622-0.926-21.889-0.001L251.133,145.067z M256,179.2
				c42.415,0,76.8,34.385,76.8,76.8c-0.048,42.396-34.404,76.752-76.8,76.8c-42.415,0-76.8-34.385-76.8-76.8
				S213.585,179.2,256,179.2z M181.042,174.113l16.88,8.289c-5.755,4.55-10.961,9.755-15.513,15.509L174.117,181L181.042,174.113z
				 M182.405,314.083c4.55,5.754,9.754,10.958,15.507,15.509L181,337.879l-6.883-6.917L182.405,314.083z M145.092,251.104
				l17.736-6.054c-0.925,7.267-0.926,14.622-0.002,21.888l-17.759-6.076L145.092,251.104z"/>
			<path d="M190.233,262.034l25.6,25.6c3.332,3.332,8.735,3.332,12.067,0c3.332-3.332,3.332-8.735,0-12.067L208.333,256
				l19.567-19.567c1.601-1.6,2.5-3.77,2.5-6.033c0-2.263-0.899-4.433-2.5-6.033c-1.6-1.601-3.77-2.5-6.033-2.5
				s-4.433,0.899-6.033,2.5l-25.6,25.6c-1.601,1.6-2.5,3.77-2.5,6.033S188.632,260.434,190.233,262.034z"/>
			<path d="M281.849,283.829c0.786,2.958,3.097,5.269,6.055,6.055c2.958,0.786,6.111-0.073,8.262-2.251l25.6-25.6
				c1.601-1.6,2.5-3.77,2.5-6.033s-0.899-4.433-2.5-6.033l-25.6-25.6c-3.341-3.281-8.701-3.256-12.012,0.054
				s-3.335,8.671-0.054,12.012L303.667,256L284.1,275.567C281.922,277.718,281.063,280.871,281.849,283.829z"/>
			<path d="M250.202,306.772c2.893-0.981,5.04-3.434,5.631-6.43l17.067-85.333c0.923-4.62-2.072-9.115-6.692-10.042
				c-4.62-0.923-9.115,2.072-10.042,6.692L239.1,296.992c-0.609,2.993,0.429,6.083,2.721,8.103
				C244.113,307.113,247.31,307.753,250.202,306.772z"/>
		</g>
	</g>
</g>
<g>
</g>
<g>
</g>
<g>
</g>
<g>
</g>
<g>
</g>
<g>
</g>
<g>
</g>
<g>
</g>
<g>
</g>
<g>
</g>
<g>
</g>
<g>
</g>
<g>
</g>
<g>
</g>
<g>
</g>
</svg>
