<?xml version="1.0" encoding="UTF-8"?>
<svg xmlns="http://www.w3.org/2000/svg" viewBox="0 0 128 128" width="512" height="512"><g id="Outline"><g id="Outline-2" data-name="Outline"><path d="M114.5,0H13.5A13.515,13.515,0,0,0,0,13.5v101A13.515,13.515,0,0,0,13.5,128h101A13.515,13.515,0,0,0,128,114.5V13.5A13.515,13.515,0,0,0,114.5,0ZM125,114.5A10.512,10.512,0,0,1,114.5,125H13.5A10.512,10.512,0,0,1,3,114.5V30H125ZM125,27H3V13.5A10.512,10.512,0,0,1,13.5,3h101A10.512,10.512,0,0,1,125,13.5Z"/><path d="M15.5,11A4.5,4.5,0,1,0,20,15.5,4.505,4.505,0,0,0,15.5,11Zm0,6A1.5,1.5,0,1,1,17,15.5,1.5,1.5,0,0,1,15.5,17Z"/><path d="M47.5,11A4.5,4.5,0,1,0,52,15.5,4.505,4.505,0,0,0,47.5,11Zm0,6A1.5,1.5,0,1,1,49,15.5,1.5,1.5,0,0,1,47.5,17Z"/><path d="M31.5,11A4.5,4.5,0,1,0,36,15.5,4.505,4.505,0,0,0,31.5,11Zm0,6A1.5,1.5,0,1,1,33,15.5,1.5,1.5,0,0,1,31.5,17Z"/><path d="M111.5,11h-16a4.5,4.5,0,0,0,0,9h16a4.5,4.5,0,0,0,0-9Zm0,6h-16a1.5,1.5,0,0,1,0-3h16a1.5,1.5,0,0,1,0,3Z"/><path d="M74.5,64h41a4.505,4.505,0,0,0,4.5-4.5v-17a4.505,4.505,0,0,0-4.5-4.5h-41A4.505,4.505,0,0,0,70,42.5v17A4.505,4.505,0,0,0,74.5,64ZM73,42.5A1.5,1.5,0,0,1,74.5,41h41a1.5,1.5,0,0,1,1.5,1.5v17a1.5,1.5,0,0,1-1.5,1.5h-41A1.5,1.5,0,0,1,73,59.5Z"/><path d="M13.5,119h40a4.505,4.505,0,0,0,4.5-4.5v-33A4.505,4.505,0,0,0,53.5,77h-40A4.505,4.505,0,0,0,9,81.5v33A4.505,4.505,0,0,0,13.5,119ZM12,81.5A1.5,1.5,0,0,1,13.5,80h40A1.5,1.5,0,0,1,55,81.5v33a1.5,1.5,0,0,1-1.5,1.5h-40a1.5,1.5,0,0,1-1.5-1.5Z"/><path d="M21.166,67.026a10.512,10.512,0,0,0,10.5-10.5v-14a4.5,4.5,0,0,0-9,0v14a1.5,1.5,0,0,1-3,0v-14a4.5,4.5,0,0,0-9,0v14A10.512,10.512,0,0,0,21.166,67.026Zm-7.5-24.5a1.5,1.5,0,0,1,3,0v14a4.5,4.5,0,0,0,9,0v-14a1.5,1.5,0,0,1,3,0v14a7.5,7.5,0,0,1-15,0Z"/><path d="M37.519,66.332a4.529,4.529,0,0,0,6.173-1.543l2.142-3.569,2.142,3.569a4.5,4.5,0,1,0,7.716-4.631l-4.61-7.684,4.61-7.685a4.5,4.5,0,1,0-7.716-4.631l-2.142,3.57-2.142-3.57a4.5,4.5,0,1,0-7.716,4.631l4.61,7.685-4.61,7.684A4.52,4.52,0,0,0,37.519,66.332ZM38.548,61.7l5.074-8.456a1.5,1.5,0,0,0,0-1.543l-5.074-8.456A1.5,1.5,0,0,1,41.12,41.7l3.428,5.713a1.509,1.509,0,0,0,2.572,0L50.548,41.7a1.5,1.5,0,0,1,2.572,1.545L48.046,51.7a1.5,1.5,0,0,0,0,1.543L53.12,61.7a1.508,1.508,0,0,1-.515,2.059,1.532,1.532,0,0,1-2.057-.514L47.12,57.533a1.51,1.51,0,0,0-2.572,0L41.12,63.246a1.527,1.527,0,0,1-2.057.514A1.508,1.508,0,0,1,38.548,61.7Z"/><path d="M71.5,80h47a1.5,1.5,0,0,0,0-3h-47a1.5,1.5,0,0,0,0,3Z"/><path d="M71.5,93h47a1.5,1.5,0,0,0,0-3h-47a1.5,1.5,0,0,0,0,3Z"/><path d="M71.5,106h47a1.5,1.5,0,0,0,0-3h-47a1.5,1.5,0,0,0,0,3Z"/><path d="M71.5,119h47a1.5,1.5,0,0,0,0-3h-47a1.5,1.5,0,0,0,0,3Z"/></g></g></svg>
