<svg xmlns="http://www.w3.org/2000/svg" height="512pt" version="1.1" viewBox="0 -57 512.00002 512" width="512pt">
<g id="surface1">
<path d="M 504.394531 300.101562 L 482.601562 300.101562 L 482.601562 52.742188 C 482.601562 23.660156 458.941406 0 429.859375 0 L 71.480469 0.0703125 C 71.339844 0.0703125 71.199219 0.0742188 71.054688 0.0820312 C 43.152344 1.644531 21.296875 24.773438 21.296875 52.742188 L 21.296875 300.101562 L 7.605469 300.101562 C 3.40625 300.101562 0 303.507812 0 307.707031 L 0 337.464844 C 0 370.382812 26.777344 397.160156 59.695312 397.160156 L 379.695312 397.160156 C 383.898438 397.160156 387.300781 393.757812 387.300781 389.558594 C 387.300781 385.359375 383.898438 381.953125 379.695312 381.953125 L 59.695312 381.953125 C 35.164062 381.953125 15.207031 361.996094 15.207031 337.464844 L 15.207031 315.3125 L 178.78125 315.3125 L 178.78125 323.003906 C 178.78125 341.328125 193.6875 356.234375 212.011719 356.234375 L 273.632812 356.234375 C 291.957031 356.234375 306.863281 341.328125 306.863281 323.003906 L 306.863281 315.3125 L 496.792969 315.3125 L 496.792969 337.464844 C 496.792969 361.996094 476.835938 381.953125 452.304688 381.953125 L 405.046875 381.953125 C 400.847656 381.953125 397.441406 385.359375 397.441406 389.558594 C 397.441406 393.757812 400.847656 397.160156 405.046875 397.160156 L 452.304688 397.160156 C 485.222656 397.160156 512 370.382812 512 337.464844 L 512 307.707031 C 512 303.507812 508.59375 300.101562 504.394531 300.101562 Z M 291.65625 323.003906 C 291.65625 332.941406 283.570312 341.027344 273.636719 341.027344 L 212.011719 341.027344 C 202.074219 341.027344 193.988281 332.941406 193.988281 323.003906 L 193.988281 315.308594 L 291.65625 315.308594 Z M 36.503906 300.101562 L 36.503906 52.742188 C 36.503906 32.90625 51.949219 16.488281 71.703125 15.277344 L 425.945312 15.207031 L 429.859375 15.207031 C 450.554688 15.207031 467.394531 32.046875 467.394531 52.742188 L 467.394531 300.101562 Z M 36.503906 300.101562 " style=" stroke:none;fill-rule:nonzero;fill:rgb(0%,0%,0%);fill-opacity:1;" />
<path d="M 190.351562 201.933594 L 155.625 179.4375 L 190.300781 156.976562 C 195.285156 153.808594 198.382812 147.5625 198.382812 140.683594 C 198.382812 133.847656 195.535156 127.261719 190.367188 122.140625 C 185.523438 117.34375 179.394531 114.589844 173.554688 114.589844 C 169.78125 114.589844 166.765625 115.457031 164.359375 117.238281 L 100.261719 158.878906 C 100.257812 158.878906 100.253906 158.882812 100.25 158.882812 C 91.917969 164.320312 88.949219 173.066406 88.949219 179.4375 C 88.949219 185.8125 91.917969 194.558594 100.261719 200 L 164.359375 241.636719 C 166.765625 243.417969 169.78125 244.285156 173.554688 244.285156 C 179.394531 244.285156 185.519531 241.535156 190.367188 236.734375 C 195.535156 231.613281 198.382812 225.03125 198.382812 218.191406 C 198.382812 211.316406 195.285156 205.070312 190.351562 201.933594 Z M 173.554688 229.078125 C 173.257812 229.078125 173.046875 229.066406 172.90625 229.054688 C 172.898438 229.050781 172.890625 229.042969 172.882812 229.039062 L 108.558594 187.253906 C 104.28125 184.464844 104.15625 179.945312 104.15625 179.4375 C 104.15625 178.933594 104.28125 174.421875 108.546875 171.628906 L 172.886719 129.835938 C 172.894531 129.832031 172.898438 129.828125 172.90625 129.824219 C 173.050781 129.8125 173.261719 129.796875 173.558594 129.796875 C 176.851562 129.796875 183.175781 134.394531 183.175781 140.683594 C 183.175781 142.738281 182.410156 143.949219 182.089844 144.179688 L 137.507812 173.058594 C 135.34375 174.457031 134.039062 176.859375 134.039062 179.4375 C 134.039062 182.015625 135.34375 184.421875 137.507812 185.820312 L 182.128906 214.722656 C 182.410156 214.929688 183.175781 216.136719 183.175781 218.191406 C 183.175781 224.480469 176.847656 229.078125 173.554688 229.078125 Z M 173.554688 229.078125 " style=" stroke:none;fill-rule:nonzero;fill:rgb(0%,0%,0%);fill-opacity:1;" />
<path d="M 327.566406 67.480469 C 327.566406 54.902344 315.90625 46.453125 305.019531 46.453125 C 297.203125 46.453125 290.652344 50.453125 287.542969 57.0625 L 271.082031 90.878906 C 269.242188 94.65625 270.8125 99.207031 274.589844 101.046875 C 278.363281 102.882812 282.914062 101.3125 284.753906 97.539062 L 301.261719 63.625 C 301.515625 63.089844 302.1875 61.660156 305.019531 61.660156 C 308.011719 61.660156 312.359375 63.929688 312.359375 67.480469 C 312.359375 68.289062 312.203125 68.785156 312.117188 68.957031 L 222.957031 251.585938 C 222.9375 251.625 222.917969 251.664062 222.898438 251.707031 C 222.582031 252.382812 220.757812 253.648438 218.390625 253.648438 C 213.796875 253.648438 211.8125 249.792969 211.8125 247.847656 C 211.820312 247.667969 211.945312 247.078125 212.3125 246.34375 L 275.023438 117.523438 C 276.863281 113.746094 275.292969 109.195312 271.515625 107.355469 C 267.742188 105.519531 263.1875 107.089844 261.351562 110.863281 L 198.671875 239.613281 C 197.339844 242.285156 196.605469 245.199219 196.605469 247.828125 C 196.605469 253.003906 198.785156 258.238281 202.59375 262.191406 C 206.734375 266.488281 212.34375 268.855469 218.394531 268.855469 C 226.308594 268.855469 233.636719 264.582031 236.648438 258.207031 L 325.75 75.695312 C 327.253906 72.691406 327.566406 69.570312 327.566406 67.480469 Z M 327.566406 67.480469 " style=" stroke:none;fill-rule:nonzero;fill:rgb(0%,0%,0%);fill-opacity:1;" />
<path d="M 403.632812 158.878906 L 339.535156 117.238281 C 337.128906 115.457031 334.113281 114.589844 330.339844 114.589844 C 324.5 114.589844 318.371094 117.34375 313.527344 122.140625 C 308.359375 127.261719 305.511719 133.847656 305.511719 140.683594 C 305.511719 147.5625 308.609375 153.808594 313.542969 156.945312 L 348.269531 179.4375 L 313.59375 201.898438 C 308.609375 205.070312 305.511719 211.316406 305.511719 218.191406 C 305.511719 225.03125 308.359375 231.613281 313.527344 236.734375 C 318.371094 241.535156 324.5 244.289062 330.339844 244.289062 C 334.113281 244.289062 337.128906 243.421875 339.535156 241.636719 L 403.628906 200 C 403.632812 200 403.636719 199.996094 403.640625 199.992188 C 411.976562 194.558594 414.945312 185.8125 414.945312 179.4375 C 414.945312 173.066406 411.976562 164.320312 403.632812 158.878906 Z M 395.339844 187.25 L 331.011719 229.039062 C 331.003906 229.042969 331 229.046875 330.992188 229.054688 C 330.847656 229.066406 330.636719 229.078125 330.339844 229.078125 C 327.046875 229.078125 320.722656 224.480469 320.722656 218.191406 C 320.722656 216.136719 321.492188 214.929688 321.8125 214.695312 L 366.390625 185.820312 C 368.554688 184.417969 369.863281 182.015625 369.863281 179.4375 C 369.863281 176.859375 368.554688 174.457031 366.390625 173.054688 L 321.769531 144.152344 C 321.492188 143.945312 320.722656 142.738281 320.722656 140.683594 C 320.722656 134.394531 327.050781 129.796875 330.34375 129.796875 C 330.640625 129.796875 330.851562 129.808594 330.992188 129.820312 C 331 129.824219 331.007812 129.832031 331.011719 129.835938 L 395.339844 171.621094 C 399.617188 174.410156 399.742188 178.929688 399.742188 179.4375 C 399.742188 179.941406 399.617188 184.460938 395.339844 187.25 Z M 395.339844 187.25 " style=" stroke:none;fill-rule:nonzero;fill:rgb(0%,0%,0%);fill-opacity:1;" />
</g>
</svg>